<svg width="767" height="93" viewBox="0 0 767 93" fill="none" xmlns="http://www.w3.org/2000/svg">
<path d="M14.2 2V72H7.7V2H14.2ZM8 64.7V72H2.38419e-07V71C2.38419e-07 71 0.2 71 0.6 71C1.06667 71 1.3 71 1.3 71C3.03333 71 4.5 70.4 5.7 69.2C6.96667 67.9333 7.63333 66.4333 7.7 64.7H8ZM8 9.3H7.7C7.63333 7.56666 6.96667 6.1 5.7 4.9C4.5 3.63333 3.03333 2.99999 1.3 2.99999C1.3 2.99999 1.06667 2.99999 0.6 2.99999C0.2 2.99999 2.38419e-07 2.99999 2.38419e-07 2.99999V2H8V9.3ZM13.9 64.7H14.2C14.2667 66.4333 14.9 67.9333 16.1 69.2C17.3667 70.4 18.8667 71 20.6 71C20.6 71 20.8 71 21.2 71C21.6 71 21.8333 71 21.9 71V72H13.9V64.7ZM13.9 9.3V2H21.9V2.99999C21.8333 2.99999 21.6 2.99999 21.2 2.99999C20.8 2.99999 20.6 2.99999 20.6 2.99999C18.8667 2.99999 17.3667 3.63333 16.1 4.9C14.9 6.1 14.2667 7.56666 14.2 9.3H13.9ZM40.3891 0.499997L98.4891 62.5L99.3891 73.4L41.2891 11.5L40.3891 0.499997ZM40.5891 64.9V72H32.2891V71C32.2891 71 32.5891 71 33.1891 71C33.7891 71 34.1224 71 34.1891 71C35.8557 71 37.2891 70.4 38.4891 69.2C39.6891 68 40.2891 66.5667 40.2891 64.9H40.5891ZM44.8891 64.9C44.8891 66.5667 45.4891 68 46.6891 69.2C47.8891 70.4 49.3224 71 50.9891 71C51.0557 71 51.3891 71 51.9891 71C52.5891 71 52.8891 71 52.8891 71V72H44.5891V64.9H44.8891ZM40.3891 0.499997L44.7891 6.1L44.8891 72H40.2891V13C40.2891 9.6 40.1224 6.66666 39.7891 4.2C39.5224 1.73333 39.3891 0.499997 39.3891 0.499997H40.3891ZM99.3891 2V60.6C99.3891 62.7333 99.4557 64.8 99.5891 66.8C99.7224 68.7333 99.8557 70.3333 99.9891 71.6C100.189 72.8 100.289 73.4 100.289 73.4H99.3891L94.8891 68.1V2H99.3891ZM107.389 2V2.99999C107.389 2.99999 107.089 2.99999 106.489 2.99999C105.889 2.99999 105.589 2.99999 105.589 2.99999C103.922 2.99999 102.489 3.59999 101.289 4.79999C100.089 5.93333 99.4557 7.36666 99.3891 9.1H99.0891V2H107.389ZM86.7891 2H95.0891V9.1H94.8891C94.8224 7.36666 94.1891 5.93333 92.9891 4.79999C91.8557 3.59999 90.4224 2.99999 88.6891 2.99999C88.6891 2.99999 88.3891 2.99999 87.7891 2.99999C87.1891 2.99999 86.8557 2.99999 86.7891 2.99999V2ZM131.095 2V72H124.595V2H131.095ZM153.795 36V39H130.795V36H153.795ZM158.095 2V5.1H130.795V2H158.095ZM153.795 38.8V45.4H152.795V43.9C152.795 42.5667 152.328 41.4333 151.395 40.5C150.461 39.5 149.328 39 147.995 39V38.8H153.795ZM153.795 29.6V36.2H147.995V36C149.328 35.9333 150.461 35.4333 151.395 34.5C152.328 33.5 152.795 32.3333 152.795 31V29.6H153.795ZM158.095 4.79999V11.5H157.095V10C157.095 8.66666 156.595 7.53333 155.595 6.6C154.661 5.6 153.528 5.1 152.195 5.1V4.79999H158.095ZM158.095 0.199995V3.1L145.895 2C147.361 2 148.895 1.9 150.495 1.7C152.161 1.5 153.695 1.26666 155.095 0.999996C156.495 0.733329 157.495 0.466662 158.095 0.199995ZM124.895 64.7V72H116.895V71C116.895 71 117.095 71 117.495 71C117.961 71 118.195 71 118.195 71C119.928 71 121.395 70.4 122.595 69.2C123.861 67.9333 124.528 66.4333 124.595 64.7H124.895ZM124.895 9.3H124.595C124.595 7.56666 123.961 6.1 122.695 4.9C121.428 3.63333 119.928 2.99999 118.195 2.99999C118.195 2.99999 117.995 2.99999 117.595 2.99999C117.195 2.99999 116.995 2.99999 116.995 2.99999L116.895 2H124.895V9.3ZM130.795 64.7H131.095C131.161 66.4333 131.795 67.9333 132.995 69.2C134.261 70.4 135.761 71 137.495 71C137.495 71 137.695 71 138.095 71C138.495 71 138.728 71 138.795 71V72H130.795V64.7ZM189.996 73.9C204.196 78.8333 214.829 82.1667 221.896 83.9C229.029 85.7 235.129 86.6 240.196 86.6C245.329 86.6 250.963 85.4333 257.096 83.1L257.596 83.9C249.463 89.5 241.263 92.3 232.996 92.3C224.529 92.3 214.896 89.6667 204.096 84.4C195.763 80.2667 190.596 77.7667 188.596 76.9C181.463 73.7 175.596 72.0667 170.996 72V71H172.296C174.029 71 175.496 70.4 176.696 69.2C177.963 68 178.629 66.5 178.696 64.7V9.3C178.629 7.56666 177.963 6.1 176.696 4.9C175.496 3.63333 174.029 2.99999 172.296 2.99999H170.996V2H192.896V2.99999H191.596C189.863 2.99999 188.363 3.63333 187.096 4.9C185.829 6.1 185.196 7.56666 185.196 9.3V67C185.196 68.2 185.263 69.1333 185.396 69.8C185.529 70.4 185.963 71.1 186.696 71.9C187.429 72.7 188.529 73.3667 189.996 73.9ZM223.533 2V46C223.533 50.8 224.399 55.0333 226.133 58.7C227.933 62.3667 230.433 65.2333 233.633 67.3C236.833 69.3 240.533 70.3 244.733 70.3C249.199 70.3 253.099 69.3333 256.433 67.4C259.766 65.4667 262.366 62.8 264.233 59.4C266.099 55.9333 267.033 51.9 267.033 47.3V2H271.733V47.3C271.733 52.5 270.599 57.0667 268.333 61C266.133 64.8667 262.999 67.9 258.933 70.1C254.866 72.3 250.133 73.4 244.733 73.4C239.199 73.4 234.333 72.3333 230.133 70.2C225.999 68 222.766 64.9667 220.433 61.1C218.166 57.1667 217.033 52.6 217.033 47.4V2H223.533ZM217.333 2V8H217.033C217.033 6.53333 216.499 5.33333 215.433 4.39999C214.433 3.46666 213.199 2.99999 211.733 2.99999C211.733 2.99999 211.466 2.99999 210.933 2.99999C210.399 2.99999 210.133 2.99999 210.133 2.99999V2H217.333ZM230.433 2V2.99999C230.433 2.99999 230.166 2.99999 229.633 2.99999C229.099 2.99999 228.833 2.99999 228.833 2.99999C227.366 2.99999 226.099 3.46666 225.033 4.39999C224.033 5.33333 223.533 6.53333 223.533 8H223.333V2H230.433ZM267.333 2V8H267.033C267.033 6.53333 266.499 5.33333 265.433 4.39999C264.433 3.46666 263.199 2.99999 261.733 2.99999C261.733 2.99999 261.466 2.99999 260.933 2.99999C260.399 2.99999 260.133 2.99999 260.133 2.99999V2H267.333ZM278.633 2V2.99999C278.633 2.99999 278.366 2.99999 277.833 2.99999C277.299 2.99999 277.033 2.99999 277.033 2.99999C275.566 2.99999 274.299 3.46666 273.233 4.39999C272.233 5.33333 271.733 6.53333 271.733 8H271.533V2H278.633ZM302.579 2V72H296.079V2H302.579ZM329.579 68.9V72H302.279V68.9H329.579ZM325.279 36V39H302.279V36H325.279ZM329.579 2V5.1H302.279V2H329.579ZM335.679 55.8L329.879 72H313.279L316.879 68.9C320.412 68.9 323.279 68.3667 325.479 67.3C327.746 66.1667 329.579 64.6 330.979 62.6C332.379 60.6 333.612 58.3333 334.679 55.8H335.679ZM325.279 38.8V45.4H324.279V43.9C324.279 42.5667 323.812 41.4333 322.879 40.5C321.946 39.5 320.812 39 319.479 39V38.8H325.279ZM325.279 29.6V36.2H319.479V36C320.812 35.9333 321.946 35.4333 322.879 34.5C323.812 33.5 324.279 32.3333 324.279 31V29.6H325.279ZM329.579 4.79999V12.8H328.579V11C328.579 9.4 328.012 8.03333 326.879 6.9C325.746 5.7 324.346 5.06666 322.679 5V4.79999H329.579ZM329.579 0.199995V3.1L317.379 2C318.846 2 320.379 1.9 321.979 1.7C323.646 1.5 325.179 1.26666 326.579 0.999996C327.979 0.733329 328.979 0.466662 329.579 0.199995ZM296.379 64.7V72H288.379V71C288.379 71 288.579 71 288.979 71C289.446 71 289.679 71 289.679 71C291.412 71 292.879 70.4 294.079 69.2C295.346 67.9333 296.012 66.4333 296.079 64.7H296.379ZM296.379 9.3H296.079C296.079 7.56666 295.446 6.1 294.179 4.9C292.912 3.63333 291.412 2.99999 289.679 2.99999C289.679 2.99999 289.479 2.99999 289.079 2.99999C288.679 2.99999 288.479 2.99999 288.479 2.99999L288.379 2H296.379V9.3ZM351.717 0.499997L409.817 62.5L410.717 73.4L352.617 11.5L351.717 0.499997ZM351.917 64.9V72H343.617V71C343.617 71 343.917 71 344.517 71C345.117 71 345.451 71 345.517 71C347.184 71 348.617 70.4 349.817 69.2C351.017 68 351.617 66.5667 351.617 64.9H351.917ZM356.217 64.9C356.217 66.5667 356.817 68 358.017 69.2C359.217 70.4 360.651 71 362.317 71C362.384 71 362.717 71 363.317 71C363.917 71 364.217 71 364.217 71V72H355.917V64.9H356.217ZM351.717 0.499997L356.117 6.1L356.217 72H351.617V13C351.617 9.6 351.451 6.66666 351.117 4.2C350.851 1.73333 350.717 0.499997 350.717 0.499997H351.717ZM410.717 2V60.6C410.717 62.7333 410.784 64.8 410.917 66.8C411.051 68.7333 411.184 70.3333 411.317 71.6C411.517 72.8 411.617 73.4 411.617 73.4H410.717L406.217 68.1V2H410.717ZM418.717 2V2.99999C418.717 2.99999 418.417 2.99999 417.817 2.99999C417.217 2.99999 416.917 2.99999 416.917 2.99999C415.251 2.99999 413.817 3.59999 412.617 4.79999C411.417 5.93333 410.784 7.36666 410.717 9.1H410.417V2H418.717ZM398.117 2H406.417V9.1H406.217C406.151 7.36666 405.517 5.93333 404.317 4.79999C403.184 3.59999 401.751 2.99999 400.017 2.99999C400.017 2.99999 399.717 2.99999 399.117 2.99999C398.517 2.99999 398.184 2.99999 398.117 2.99999V2ZM492.246 42.8L491.046 58.5C489.313 61.3667 487.113 63.9333 484.446 66.2C481.846 68.4 478.746 70.1667 475.146 71.5C471.613 72.7667 467.546 73.4 462.946 73.4C456.013 73.3333 449.846 71.8 444.446 68.8C439.046 65.8 434.813 61.6 431.746 56.2C428.746 50.7333 427.246 44.3 427.246 36.9C427.246 29.6333 428.746 23.3 431.746 17.9C434.746 12.4333 438.946 8.2 444.346 5.2C449.813 2.13333 456.213 0.599995 463.546 0.599995C468.479 0.599995 472.913 1.26666 476.846 2.6C480.846 3.86667 484.313 5.46666 487.246 7.4L489.246 21.5H488.346C486.879 15.6333 483.879 11.2 479.346 8.2C474.813 5.13333 469.546 3.6 463.546 3.6C457.679 3.6 452.579 5 448.246 7.8C443.979 10.5333 440.646 14.4 438.246 19.4C435.913 24.3333 434.746 30.1333 434.746 36.8C434.746 43.4667 435.913 49.3 438.246 54.3C440.646 59.3 443.946 63.2 448.146 66C452.413 68.8 457.346 70.2667 462.946 70.4C467.679 70.4 472.046 69.5333 476.046 67.8C480.113 66 483.513 63.1 486.246 59.1C488.979 55.0333 490.713 49.6 491.446 42.8H492.246ZM522.323 0.599995C523.389 0.599995 524.523 0.666663 525.723 0.799999C526.989 0.93333 528.189 1.13333 529.323 1.4C530.523 1.6 531.589 1.83333 532.523 2.09999C533.523 2.3 534.289 2.53333 534.823 2.8V13.9H533.923C533.923 10.7 532.823 8.2 530.623 6.4C528.423 4.53333 525.756 3.6 522.623 3.6C518.956 3.6 515.989 4.76666 513.723 7.1C511.456 9.36666 510.323 12.0333 510.323 15.1C510.323 16.3667 510.589 17.8667 511.123 19.6C511.723 21.2667 512.789 22.8333 514.323 24.3L534.023 42.5C536.023 44.3667 537.356 46.3667 538.023 48.5C538.689 50.6333 539.023 52.7 539.023 54.7C539.023 60.2333 537.323 64.7333 533.923 68.2C530.589 71.6667 526.056 73.4 520.323 73.4C518.723 73.4 516.823 73.2333 514.623 72.9C512.489 72.5667 510.389 72 508.323 71.2C506.323 70.3333 504.656 69.2333 503.323 67.9C503.123 66.8333 503.023 65.5 503.023 63.9C503.023 62.3 503.156 60.6333 503.423 58.9C503.689 57.1 504.056 55.4667 504.523 54H505.423C505.089 57.4 505.523 60.3667 506.723 62.9C507.923 65.4333 509.656 67.3667 511.923 68.7C514.256 69.9667 516.889 70.5333 519.823 70.4C523.489 70.2 526.623 68.9333 529.223 66.6C531.889 64.2 533.223 61 533.223 57C533.223 55.0667 532.889 53.3333 532.223 51.8C531.556 50.2 530.589 48.8333 529.323 47.7L510.123 29.9C508.123 28.0333 506.723 26 505.923 23.8C505.123 21.5333 504.723 19.4333 504.723 17.5C504.723 14.7 505.389 12 506.723 9.4C508.056 6.8 510.023 4.7 512.623 3.1C515.289 1.43333 518.523 0.599995 522.323 0.599995ZM534.823 1.59999V3.7H527.223V1.59999H534.823ZM578.884 2.3V72H572.384V2.3H578.884ZM604.584 1.9V4.9H546.684V1.9H604.584ZM604.584 4.6V12.7L603.584 12.6V10.9C603.584 9.23333 602.984 7.83333 601.784 6.69999C600.65 5.56666 599.284 4.96667 597.684 4.9V4.6H604.584ZM604.584 0.0999959V2.99999L592.384 1.9C593.85 1.9 595.384 1.8 596.984 1.59999C598.65 1.4 600.184 1.16666 601.584 0.899997C602.984 0.63333 603.984 0.366663 604.584 0.0999959ZM572.684 64.7V72H564.684V71C564.684 71 564.884 71 565.284 71C565.75 71 565.984 71 565.984 71C567.717 71 569.184 70.4 570.384 69.2C571.65 67.9333 572.317 66.4333 572.384 64.7H572.684ZM578.584 64.7H578.884C578.95 66.4333 579.584 67.9333 580.784 69.2C582.05 70.4 583.55 71 585.284 71C585.284 71 585.484 71 585.884 71C586.35 71 586.584 71 586.584 71V72H578.584V64.7ZM553.584 4.6V4.9C551.917 4.96667 550.517 5.56666 549.384 6.69999C548.25 7.83333 547.684 9.23333 547.684 10.9V12.6L546.684 12.7V4.6H553.584ZM546.684 0.0999959C547.35 0.366663 548.35 0.63333 549.684 0.899997C551.084 1.16666 552.617 1.4 554.284 1.59999C555.95 1.8 557.484 1.9 558.884 1.9L546.684 2.99999V0.0999959ZM621.5 2.09999L641.1 38.6L636.8 42.1L612.9 2.09999H621.5ZM642.5 39.8V72H636V39.8H642.5ZM660.3 2.09999H666.4L641.8 41.9L638.2 40.8L660.3 2.09999ZM656.2 9.2C656.8 8.26666 656.967 7.33333 656.7 6.4C656.433 5.4 655.933 4.6 655.2 4C654.467 3.33333 653.633 2.99999 652.7 2.99999C652.7 2.99999 652.5 2.99999 652.1 2.99999C651.7 2.99999 651.5 2.99999 651.5 2.99999V2H673.7V2.99999H672.3C670.233 2.99999 668.3 3.59999 666.5 4.79999C664.7 6 663.267 7.36666 662.2 8.9L656.2 9.2ZM625.3 9.2L616.9 8.9C615.967 7.36666 614.6 6 612.8 4.79999C611 3.59999 609.033 2.99999 606.9 2.99999H605.5V2H630.1V2.99999C630.1 2.99999 629.867 2.99999 629.4 2.99999C629 2.99999 628.8 2.99999 628.8 2.99999C627.333 2.99999 626.2 3.7 625.4 5.1C624.667 6.43333 624.633 7.8 625.3 9.2ZM636.2 64.7V72H628.3V71C628.3 71 628.5 71 628.9 71C629.3 71 629.533 71 629.6 71C631.333 71 632.8 70.4 634 69.2C635.267 67.9333 635.933 66.4333 636 64.7H636.2ZM642.2 64.7H642.5C642.5 66.4333 643.133 67.9333 644.4 69.2C645.667 70.4 647.167 71 648.9 71C648.9 71 649.1 71 649.5 71C649.9 71 650.1 71 650.1 71V72H642.2V64.7ZM697.613 73.9C711.813 78.8333 722.447 82.1667 729.513 83.9C736.647 85.7 742.747 86.6 747.813 86.6C752.947 86.6 758.58 85.4333 764.713 83.1L765.213 83.9C757.08 89.5 748.88 92.3 740.613 92.3C732.147 92.3 722.513 89.6667 711.713 84.4C703.38 80.2667 698.213 77.7667 696.213 76.9C689.08 73.7 683.213 72.0667 678.613 72V71H679.913C681.647 71 683.113 70.4 684.313 69.2C685.58 68 686.247 66.5 686.313 64.7V9.3C686.247 7.56666 685.58 6.1 684.313 4.9C683.113 3.63333 681.647 2.99999 679.913 2.99999H678.613V2H700.513V2.99999H699.213C697.48 2.99999 695.98 3.63333 694.713 4.9C693.447 6.1 692.813 7.56666 692.813 9.3V67C692.813 68.2 692.88 69.1333 693.013 69.8C693.147 70.4 693.58 71.1 694.313 71.9C695.047 72.7 696.147 73.3667 697.613 73.9ZM732.95 2V72H726.45V2H732.95ZM759.95 68.9V72H732.65V68.9H759.95ZM755.65 36V39H732.65V36H755.65ZM759.95 2V5.1H732.65V2H759.95ZM766.05 55.8L760.25 72H743.65L747.25 68.9C750.783 68.9 753.65 68.3667 755.85 67.3C758.117 66.1667 759.95 64.6 761.35 62.6C762.75 60.6 763.983 58.3333 765.05 55.8H766.05ZM755.65 38.8V45.4H754.65V43.9C754.65 42.5667 754.183 41.4333 753.25 40.5C752.317 39.5 751.183 39 749.85 39V38.8H755.65ZM755.65 29.6V36.2H749.85V36C751.183 35.9333 752.317 35.4333 753.25 34.5C754.183 33.5 754.65 32.3333 754.65 31V29.6H755.65ZM759.95 4.79999V12.8H758.95V11C758.95 9.4 758.383 8.03333 757.25 6.9C756.117 5.7 754.717 5.06666 753.05 5V4.79999H759.95ZM759.95 0.199995V3.1L747.75 2C749.217 2 750.75 1.9 752.35 1.7C754.017 1.5 755.55 1.26666 756.95 0.999996C758.35 0.733329 759.35 0.466662 759.95 0.199995ZM726.75 64.7V72H718.75V71C718.75 71 718.95 71 719.35 71C719.817 71 720.05 71 720.05 71C721.783 71 723.25 70.4 724.45 69.2C725.717 67.9333 726.383 66.4333 726.45 64.7H726.75ZM726.75 9.3H726.45C726.45 7.56666 725.817 6.1 724.55 4.9C723.283 3.63333 721.783 2.99999 720.05 2.99999C720.05 2.99999 719.85 2.99999 719.45 2.99999C719.05 2.99999 718.85 2.99999 718.85 2.99999L718.75 2H726.75V9.3Z" fill="#111111"/>
</svg>
