<svg width="500" height="60" viewBox="0 0 500 60" fill="none" xmlns="http://www.w3.org/2000/svg">
<path d="M9.428 1.7V46.5H5.268V1.7H9.428ZM5.46 41.828V46.5H0.34V45.86C0.34 45.86 0.468 45.86 0.724 45.86C1.02267 45.86 1.172 45.86 1.172 45.86C2.28133 45.86 3.22 45.476 3.988 44.708C4.79867 43.8973 5.22533 42.9373 5.268 41.828H5.46ZM5.46 6.372H5.268C5.22533 5.26266 4.79867 4.324 3.988 3.556C3.22 2.74533 2.28133 2.34 1.172 2.34C1.172 2.34 1.02267 2.34 0.724 2.34C0.468 2.34 0.34 2.34 0.34 2.34V1.7H5.46V6.372ZM9.236 41.828H9.428C9.47067 42.9373 9.876 43.8973 10.644 44.708C11.4547 45.476 12.4147 45.86 13.524 45.86C13.524 45.86 13.652 45.86 13.908 45.86C14.164 45.86 14.3133 45.86 14.356 45.86V46.5H9.236V41.828ZM9.236 6.372V1.7H14.356V2.34C14.3133 2.34 14.164 2.34 13.908 2.34C13.652 2.34 13.524 2.34 13.524 2.34C12.4147 2.34 11.4547 2.74533 10.644 3.556C9.876 4.324 9.47067 5.26266 9.428 6.372H9.236ZM26.189 0.739998L63.373 40.42L63.949 47.396L26.765 7.78L26.189 0.739998ZM26.317 41.956V46.5H21.005V45.86C21.005 45.86 21.197 45.86 21.581 45.86C21.965 45.86 22.1783 45.86 22.221 45.86C23.2877 45.86 24.205 45.476 24.973 44.708C25.741 43.94 26.125 43.0227 26.125 41.956H26.317ZM29.069 41.956C29.069 43.0227 29.453 43.94 30.221 44.708C30.989 45.476 31.9063 45.86 32.973 45.86C33.0157 45.86 33.229 45.86 33.613 45.86C33.997 45.86 34.189 45.86 34.189 45.86V46.5H28.877V41.956H29.069ZM26.189 0.739998L29.005 4.324L29.069 46.5H26.125V8.74C26.125 6.564 26.0183 4.68666 25.805 3.108C25.6343 1.52933 25.549 0.739998 25.549 0.739998H26.189ZM63.949 1.7V39.204C63.949 40.5693 63.9917 41.892 64.077 43.172C64.1623 44.4093 64.2477 45.4333 64.333 46.244C64.461 47.012 64.525 47.396 64.525 47.396H63.949L61.069 44.004V1.7H63.949ZM69.069 1.7V2.34C69.069 2.34 68.877 2.34 68.493 2.34C68.109 2.34 67.917 2.34 67.917 2.34C66.8503 2.34 65.933 2.724 65.165 3.492C64.397 4.21733 63.9917 5.13467 63.949 6.244H63.757V1.7H69.069ZM55.885 1.7H61.197V6.244H61.069C61.0263 5.13467 60.621 4.21733 59.853 3.492C59.1277 2.724 58.2103 2.34 57.101 2.34C57.101 2.34 56.909 2.34 56.525 2.34C56.141 2.34 55.9277 2.34 55.885 2.34V1.7ZM84.2405 1.7V46.5H80.0805V1.7H84.2405ZM98.7685 23.46V25.38H84.0485V23.46H98.7685ZM101.521 1.7V3.684H84.0485V1.7H101.521ZM98.7685 25.252V29.476H98.1285V28.516C98.1285 27.6627 97.8298 26.9373 97.2325 26.34C96.6352 25.7 95.9098 25.38 95.0565 25.38V25.252H98.7685ZM98.7685 19.364V23.588H95.0565V23.46C95.9098 23.4173 96.6352 23.0973 97.2325 22.5C97.8298 21.86 98.1285 21.1133 98.1285 20.26V19.364H98.7685ZM101.521 3.492V7.78H100.881V6.82C100.881 5.96666 100.561 5.24133 99.9205 4.644C99.3232 4.004 98.5978 3.684 97.7445 3.684V3.492H101.521ZM101.521 0.547997V2.404L93.7125 1.7C94.6512 1.7 95.6325 1.636 96.6565 1.508C97.7232 1.38 98.7045 1.23066 99.6005 1.06C100.497 0.889331 101.137 0.718664 101.521 0.547997ZM80.2725 41.828V46.5H75.1525V45.86C75.1525 45.86 75.2805 45.86 75.5365 45.86C75.8352 45.86 75.9845 45.86 75.9845 45.86C77.0938 45.86 78.0325 45.476 78.8005 44.708C79.6112 43.8973 80.0378 42.9373 80.0805 41.828H80.2725ZM80.2725 6.372H80.0805C80.0805 5.26266 79.6752 4.324 78.8645 3.556C78.0538 2.74533 77.0938 2.34 75.9845 2.34C75.9845 2.34 75.8565 2.34 75.6005 2.34C75.3445 2.34 75.2165 2.34 75.2165 2.34L75.1525 1.7H80.2725V6.372ZM84.0485 41.828H84.2405C84.2832 42.9373 84.6885 43.8973 85.4565 44.708C86.2672 45.476 87.2272 45.86 88.3365 45.86C88.3365 45.86 88.4645 45.86 88.7205 45.86C88.9765 45.86 89.1258 45.86 89.1685 45.86V46.5H84.0485V41.828ZM118.866 1.7V46.5H114.706V1.7H118.866ZM136.146 44.516V46.5H118.674V44.516H136.146ZM140.05 36.132L136.338 46.5H125.714L128.018 44.516C130.279 44.516 132.114 44.1747 133.522 43.492C134.972 42.7667 136.146 41.764 137.042 40.484C137.938 39.204 138.727 37.7533 139.41 36.132H140.05ZM114.898 41.828V46.5H109.778V45.86C109.778 45.86 109.906 45.86 110.161 45.86C110.46 45.86 110.61 45.86 110.61 45.86C111.719 45.86 112.658 45.476 113.426 44.708C114.236 43.8973 114.663 42.9373 114.706 41.828H114.898ZM114.898 6.372H114.706C114.663 5.26266 114.236 4.324 113.426 3.556C112.658 2.74533 111.719 2.34 110.61 2.34C110.61 2.34 110.46 2.34 110.161 2.34C109.906 2.34 109.778 2.34 109.778 2.34V1.7H114.898V6.372ZM118.674 6.372V1.7H123.794V2.34C123.751 2.34 123.602 2.34 123.346 2.34C123.09 2.34 122.962 2.34 122.962 2.34C121.852 2.34 120.892 2.74533 120.082 3.556C119.314 4.324 118.908 5.26266 118.866 6.372H118.674ZM152.714 1.7V29.86C152.714 32.932 153.268 35.6413 154.378 37.988C155.53 40.3347 157.13 42.1693 159.178 43.492C161.226 44.772 163.594 45.412 166.282 45.412C169.14 45.412 171.636 44.7933 173.77 43.556C175.903 42.3187 177.567 40.612 178.762 38.436C179.956 36.2173 180.554 33.636 180.554 30.692V1.7H183.562V30.692C183.562 34.02 182.836 36.9427 181.386 39.46C179.978 41.9347 177.972 43.876 175.37 45.284C172.767 46.692 169.738 47.396 166.282 47.396C162.74 47.396 159.626 46.7133 156.938 45.348C154.292 43.94 152.223 41.9987 150.73 39.524C149.279 37.0067 148.554 34.084 148.554 30.756V1.7H152.714ZM148.746 1.7V5.54H148.554C148.554 4.60133 148.212 3.83333 147.53 3.236C146.89 2.63866 146.1 2.34 145.161 2.34C145.161 2.34 144.991 2.34 144.65 2.34C144.308 2.34 144.138 2.34 144.138 2.34V1.7H148.746ZM157.13 1.7V2.34C157.13 2.34 156.959 2.34 156.618 2.34C156.276 2.34 156.106 2.34 156.106 2.34C155.167 2.34 154.356 2.63866 153.674 3.236C153.034 3.83333 152.714 4.60133 152.714 5.54H152.586V1.7H157.13ZM180.746 1.7V5.54H180.554C180.554 4.60133 180.212 3.83333 179.53 3.236C178.89 2.63866 178.1 2.34 177.162 2.34C177.162 2.34 176.991 2.34 176.65 2.34C176.308 2.34 176.138 2.34 176.138 2.34V1.7H180.746ZM187.978 1.7V2.34C187.978 2.34 187.807 2.34 187.466 2.34C187.124 2.34 186.954 2.34 186.954 2.34C186.015 2.34 185.204 2.63866 184.522 3.236C183.882 3.83333 183.562 4.60133 183.562 5.54H183.434V1.7H187.978ZM203.303 1.7V46.5H199.143V1.7H203.303ZM220.583 44.516V46.5H203.111V44.516H220.583ZM217.831 23.46V25.38H203.111V23.46H217.831ZM220.583 1.7V3.684H203.111V1.7H220.583ZM224.487 36.132L220.775 46.5H210.151L212.455 44.516C214.716 44.516 216.551 44.1747 217.959 43.492C219.41 42.7667 220.583 41.764 221.479 40.484C222.375 39.204 223.164 37.7533 223.847 36.132H224.487ZM217.831 25.252V29.476H217.191V28.516C217.191 27.6627 216.892 26.9373 216.295 26.34C215.698 25.7 214.972 25.38 214.119 25.38V25.252H217.831ZM217.831 19.364V23.588H214.119V23.46C214.972 23.4173 215.698 23.0973 216.295 22.5C216.892 21.86 217.191 21.1133 217.191 20.26V19.364H217.831ZM220.583 3.492V8.612H219.943V7.46C219.943 6.436 219.58 5.56133 218.855 4.836C218.13 4.068 217.234 3.66267 216.167 3.62V3.492H220.583ZM220.583 0.547997V2.404L212.775 1.7C213.714 1.7 214.695 1.636 215.719 1.508C216.786 1.38 217.767 1.23066 218.663 1.06C219.559 0.889331 220.199 0.718664 220.583 0.547997ZM199.335 41.828V46.5H194.215V45.86C194.215 45.86 194.343 45.86 194.599 45.86C194.898 45.86 195.047 45.86 195.047 45.86C196.156 45.86 197.095 45.476 197.863 44.708C198.674 43.8973 199.1 42.9373 199.143 41.828H199.335ZM199.335 6.372H199.143C199.143 5.26266 198.738 4.324 197.927 3.556C197.116 2.74533 196.156 2.34 195.047 2.34C195.047 2.34 194.919 2.34 194.663 2.34C194.407 2.34 194.279 2.34 194.279 2.34L194.215 1.7H199.335V6.372ZM234.752 0.739998L271.936 40.42L272.512 47.396L235.328 7.78L234.752 0.739998ZM234.88 41.956V46.5H229.568V45.86C229.568 45.86 229.76 45.86 230.144 45.86C230.528 45.86 230.741 45.86 230.784 45.86C231.85 45.86 232.768 45.476 233.536 44.708C234.304 43.94 234.688 43.0227 234.688 41.956H234.88ZM237.632 41.956C237.632 43.0227 238.016 43.94 238.784 44.708C239.552 45.476 240.469 45.86 241.536 45.86C241.578 45.86 241.792 45.86 242.176 45.86C242.56 45.86 242.752 45.86 242.752 45.86V46.5H237.44V41.956H237.632ZM234.752 0.739998L237.568 4.324L237.632 46.5H234.688V8.74C234.688 6.564 234.581 4.68666 234.368 3.108C234.197 1.52933 234.112 0.739998 234.112 0.739998H234.752ZM272.512 1.7V39.204C272.512 40.5693 272.554 41.892 272.64 43.172C272.725 44.4093 272.81 45.4333 272.896 46.244C273.024 47.012 273.088 47.396 273.088 47.396H272.512L269.632 44.004V1.7H272.512ZM277.632 1.7V2.34C277.632 2.34 277.44 2.34 277.056 2.34C276.672 2.34 276.48 2.34 276.48 2.34C275.413 2.34 274.496 2.724 273.728 3.492C272.96 4.21733 272.554 5.13467 272.512 6.244H272.32V1.7H277.632ZM264.448 1.7H269.76V6.244H269.632C269.589 5.13467 269.184 4.21733 268.416 3.492C267.69 2.724 266.773 2.34 265.664 2.34C265.664 2.34 265.472 2.34 265.088 2.34C264.704 2.34 264.49 2.34 264.448 2.34V1.7ZM324.69 27.812L323.922 37.86C322.813 39.6947 321.405 41.3373 319.698 42.788C318.034 44.196 316.05 45.3267 313.746 46.18C311.485 46.9907 308.882 47.396 305.938 47.396C301.501 47.3533 297.554 46.372 294.098 44.452C290.642 42.532 287.933 39.844 285.97 36.388C284.05 32.8893 283.09 28.772 283.09 24.036C283.09 19.3853 284.05 15.332 285.97 11.876C287.89 8.37733 290.578 5.668 294.034 3.748C297.533 1.78533 301.629 0.803997 306.322 0.803997C309.479 0.803997 312.317 1.23066 314.834 2.084C317.394 2.89467 319.613 3.91867 321.49 5.156L322.77 14.18H322.194C321.255 10.4253 319.335 7.588 316.434 5.668C313.533 3.70533 310.162 2.724 306.322 2.724C302.567 2.724 299.303 3.62 296.53 5.412C293.799 7.16133 291.666 9.636 290.13 12.836C288.637 15.9933 287.89 19.7053 287.89 23.972C287.89 28.2387 288.637 31.972 290.13 35.172C291.666 38.372 293.778 40.868 296.466 42.66C299.197 44.452 302.354 45.3907 305.938 45.476C308.967 45.476 311.762 44.9213 314.322 43.812C316.925 42.66 319.101 40.804 320.85 38.244C322.599 35.6413 323.709 32.164 324.178 27.812H324.69ZM343.939 0.803997C344.622 0.803997 345.347 0.846664 346.115 0.931999C346.926 1.01733 347.694 1.14533 348.419 1.316C349.187 1.444 349.87 1.59333 350.467 1.764C351.107 1.892 351.598 2.04133 351.939 2.212V9.316H351.363C351.363 7.268 350.659 5.668 349.251 4.516C347.843 3.32133 346.136 2.724 344.131 2.724C341.784 2.724 339.886 3.47066 338.435 4.964C336.984 6.41467 336.259 8.12133 336.259 10.084C336.259 10.8947 336.43 11.8547 336.771 12.964C337.155 14.0307 337.838 15.0333 338.819 15.972L351.427 27.62C352.707 28.8147 353.56 30.0947 353.987 31.46C354.414 32.8253 354.627 34.148 354.627 35.428C354.627 38.9693 353.539 41.8493 351.363 44.068C349.23 46.2867 346.328 47.396 342.659 47.396C341.635 47.396 340.419 47.2893 339.011 47.076C337.646 46.8627 336.302 46.5 334.979 45.988C333.699 45.4333 332.632 44.7293 331.779 43.876C331.651 43.1933 331.587 42.34 331.587 41.316C331.587 40.292 331.672 39.2253 331.843 38.116C332.014 36.964 332.248 35.9187 332.547 34.98H333.123C332.91 37.156 333.187 39.0547 333.955 40.676C334.723 42.2973 335.832 43.5347 337.283 44.388C338.776 45.1987 340.462 45.5613 342.339 45.476C344.686 45.348 346.691 44.5373 348.355 43.044C350.062 41.508 350.915 39.46 350.915 36.9C350.915 35.6627 350.702 34.5533 350.275 33.572C349.848 32.548 349.23 31.6733 348.419 30.948L336.131 19.556C334.851 18.3613 333.955 17.06 333.443 15.652C332.931 14.2013 332.675 12.8573 332.675 11.62C332.675 9.828 333.102 8.1 333.955 6.436C334.808 4.772 336.067 3.428 337.731 2.404C339.438 1.33733 341.507 0.803997 343.939 0.803997ZM351.939 1.444V2.788H347.075V1.444H351.939ZM380.138 1.892V46.5H375.978V1.892H380.138ZM396.586 1.636V3.556H359.53V1.636H396.586ZM396.586 3.364V8.548L395.946 8.484V7.396C395.946 6.32933 395.562 5.43333 394.794 4.708C394.069 3.98266 393.194 3.59867 392.17 3.556V3.364H396.586ZM396.586 0.483997V2.34L388.778 1.636C389.717 1.636 390.698 1.572 391.722 1.444C392.789 1.316 393.77 1.16667 394.666 0.995998C395.562 0.825331 396.202 0.654664 396.586 0.483997ZM376.17 41.828V46.5H371.05V45.86C371.05 45.86 371.178 45.86 371.434 45.86C371.733 45.86 371.882 45.86 371.882 45.86C372.991 45.86 373.93 45.476 374.698 44.708C375.509 43.8973 375.935 42.9373 375.978 41.828H376.17ZM379.946 41.828H380.138C380.181 42.9373 380.586 43.8973 381.354 44.708C382.165 45.476 383.125 45.86 384.234 45.86C384.234 45.86 384.362 45.86 384.618 45.86C384.917 45.86 385.066 45.86 385.066 45.86V46.5H379.946V41.828ZM363.946 3.364V3.556C362.879 3.59867 361.983 3.98266 361.258 4.708C360.533 5.43333 360.17 6.32933 360.17 7.396V8.484L359.53 8.548V3.364H363.946ZM359.53 0.483997C359.957 0.654664 360.597 0.825331 361.45 0.995998C362.346 1.16667 363.327 1.316 364.394 1.444C365.461 1.572 366.442 1.636 367.338 1.636L359.53 2.34V0.483997ZM407.413 1.764L419.957 25.124L417.205 27.364L401.909 1.764H407.413ZM420.853 25.892V46.5H416.693V25.892H420.853ZM432.245 1.764H436.149L420.405 27.236L418.101 26.532L432.245 1.764ZM429.621 6.308C430.005 5.71067 430.111 5.11333 429.941 4.516C429.77 3.876 429.45 3.364 428.981 2.98C428.511 2.55333 427.978 2.34 427.381 2.34C427.381 2.34 427.253 2.34 426.997 2.34C426.741 2.34 426.613 2.34 426.613 2.34V1.7H440.821V2.34H439.925C438.602 2.34 437.365 2.724 436.213 3.492C435.061 4.26 434.143 5.13466 433.461 6.116L429.621 6.308ZM409.845 6.308L404.469 6.116C403.871 5.13466 402.997 4.26 401.845 3.492C400.693 2.724 399.434 2.34 398.069 2.34H397.172V1.7H412.917V2.34C412.917 2.34 412.767 2.34 412.469 2.34C412.213 2.34 412.085 2.34 412.085 2.34C411.146 2.34 410.421 2.788 409.909 3.684C409.439 4.53733 409.418 5.412 409.845 6.308ZM416.821 41.828V46.5H411.765V45.86C411.765 45.86 411.893 45.86 412.149 45.86C412.405 45.86 412.554 45.86 412.597 45.86C413.706 45.86 414.645 45.476 415.413 44.708C416.223 43.8973 416.65 42.9373 416.693 41.828H416.821ZM420.661 41.828H420.853C420.853 42.9373 421.258 43.8973 422.069 44.708C422.879 45.476 423.839 45.86 424.949 45.86C424.949 45.86 425.077 45.86 425.333 45.86C425.589 45.86 425.717 45.86 425.717 45.86V46.5H420.661V41.828ZM456.125 47.716C465.213 50.8733 472.018 53.0067 476.541 54.116C481.106 55.268 485.01 55.844 488.253 55.844C491.538 55.844 495.144 55.0973 499.069 53.604L499.389 54.116C494.184 57.7 488.936 59.492 483.645 59.492C478.226 59.492 472.061 57.8067 465.149 54.436C459.816 51.7907 456.509 50.1907 455.229 49.636C450.664 47.588 446.909 46.5427 443.965 46.5V45.86H444.797C445.906 45.86 446.845 45.476 447.613 44.708C448.424 43.94 448.85 42.98 448.893 41.828V6.372C448.85 5.26266 448.424 4.324 447.613 3.556C446.845 2.74533 445.906 2.34 444.797 2.34H443.965V1.7H457.981V2.34H457.149C456.04 2.34 455.08 2.74533 454.269 3.556C453.458 4.324 453.053 5.26266 453.053 6.372V43.3C453.053 44.068 453.096 44.6653 453.181 45.092C453.266 45.476 453.544 45.924 454.013 46.436C454.482 46.948 455.186 47.3747 456.125 47.716ZM478.741 1.7V46.5H474.581V1.7H478.741ZM496.021 44.516V46.5H478.549V44.516H496.021ZM493.269 23.46V25.38H478.549V23.46H493.269ZM496.021 1.7V3.684H478.549V1.7H496.021ZM499.925 36.132L496.213 46.5H485.589L487.893 44.516C490.154 44.516 491.989 44.1747 493.397 43.492C494.847 42.7667 496.021 41.764 496.917 40.484C497.813 39.204 498.602 37.7533 499.285 36.132H499.925ZM493.269 25.252V29.476H492.629V28.516C492.629 27.6627 492.33 26.9373 491.733 26.34C491.135 25.7 490.41 25.38 489.557 25.38V25.252H493.269ZM493.269 19.364V23.588H489.557V23.46C490.41 23.4173 491.135 23.0973 491.733 22.5C492.33 21.86 492.629 21.1133 492.629 20.26V19.364H493.269ZM496.021 3.492V8.612H495.381V7.46C495.381 6.436 495.018 5.56133 494.293 4.836C493.567 4.068 492.671 3.66267 491.605 3.62V3.492H496.021ZM496.021 0.547997V2.404L488.213 1.7C489.151 1.7 490.133 1.636 491.157 1.508C492.223 1.38 493.205 1.23066 494.101 1.06C494.997 0.889331 495.637 0.718664 496.021 0.547997ZM474.773 41.828V46.5H469.653V45.86C469.653 45.86 469.781 45.86 470.036 45.86C470.335 45.86 470.485 45.86 470.485 45.86C471.594 45.86 472.533 45.476 473.301 44.708C474.111 43.8973 474.538 42.9373 474.581 41.828H474.773ZM474.773 6.372H474.581C474.581 5.26266 474.175 4.324 473.365 3.556C472.554 2.74533 471.594 2.34 470.485 2.34C470.485 2.34 470.357 2.34 470.101 2.34C469.845 2.34 469.717 2.34 469.717 2.34L469.653 1.7H474.773V6.372Z" fill="#111111"/>
</svg>
